<svg width="16" height="16" viewBox="0 0 16 16" fill="none" xmlns="http://www.w3.org/2000/svg">
<path d="M1 2C1 0.90625 1.875 0 3 0H8C9.09375 0 10 0.90625 10 2V8H10.25C11.75 8 13 9.25 13 10.75V11.75C13 12.1875 13.3125 12.5 13.75 12.5C14.1562 12.5 14.5 12.1875 14.5 11.75V6.9375C13.625 6.71875 13 5.9375 13 5V3L12 2C11.7188 1.75 11.7188 1.28125 12 1C12.25 0.75 12.7188 0.75 13 1L15.4062 3.4375C15.7812 3.8125 16 4.3125 16 4.84375V11.75C16 13 14.9688 14 13.75 14C12.5 14 11.5 13 11.5 11.75V10.75C11.5 10.0625 10.9375 9.5 10.25 9.5H10V14C10.5312 14 11 14.4688 11 15C11 15.5625 10.5312 16 10 16H1C0.4375 16 0 15.5625 0 15C0 14.4688 0.4375 14 1 14V2ZM3 5.5C3 5.78125 3.21875 6 3.5 6H7.5C7.75 6 8 5.78125 8 5.5V2.5C8 2.25 7.75 2 7.5 2H3.5C3.21875 2 3 2.25 3 2.5V5.5Z" fill="white" fill-opacity="0.3"/>
</svg>
