<svg width="17" height="18" viewBox="0 0 17 18" fill="none" xmlns="http://www.w3.org/2000/svg">
<path fill-rule="evenodd" clip-rule="evenodd" d="M5.40495 8.99908C5.40495 7.29029 6.79018 5.90506 8.49897 5.90506C10.2078 5.90506 11.593 7.29029 11.593 8.99908C11.593 10.7079 10.2078 12.0931 8.49897 12.0931C6.79018 12.0931 5.40495 10.7079 5.40495 8.99908ZM8.49897 6.49719C7.1172 6.49719 5.99708 7.61731 5.99708 8.99908C5.99708 10.3808 7.1172 11.501 8.49897 11.501C9.88074 11.501 11.0009 10.3808 11.0009 8.99908C11.0009 7.61731 9.88074 6.49719 8.49897 6.49719Z" fill="#565656"/>
<path fill-rule="evenodd" clip-rule="evenodd" d="M14.3651 2.56099C13.1539 3.50369 11.5401 4.92053 9.75782 6.62126C9.63953 6.73414 9.45212 6.72976 9.33924 6.61146C9.22635 6.49317 9.23074 6.30576 9.34903 6.19288C11.1392 4.48456 12.7688 3.05307 14.0014 2.09372C14.6161 1.61529 15.1407 1.24744 15.5415 1.02177C15.7398 0.91011 15.9233 0.824313 16.0809 0.781549C16.1597 0.760186 16.2475 0.745138 16.3358 0.751478C16.4265 0.757991 16.5355 0.789036 16.6234 0.877102C16.6236 0.87731 16.6238 0.87752 16.624 0.877728C16.727 0.981115 16.7509 1.1116 16.7501 1.21052C16.7493 1.30904 16.7246 1.40951 16.6926 1.50275C16.628 1.69075 16.5086 1.91787 16.3519 2.17158C16.0359 2.6832 15.5322 3.35967 14.885 4.15079C13.5882 5.73579 11.6914 7.81036 9.50091 10.0008C7.31045 12.1913 5.23588 14.0882 3.65087 15.3849C2.85975 16.0321 2.18328 16.5359 1.67166 16.8518C1.41795 17.0085 1.19083 17.1279 1.00283 17.1925C0.909595 17.2246 0.809126 17.2492 0.710606 17.25C0.611487 17.2508 0.480669 17.2268 0.377183 17.1233L0.586534 16.9139L0.377192 17.1233C0.377189 17.1233 0.377186 17.1233 0.377183 17.1233C0.28889 17.035 0.25816 16.9257 0.251877 16.835C0.245768 16.7469 0.260926 16.6592 0.282363 16.5805C0.32528 16.4231 0.411118 16.2397 0.522822 16.0413C0.748564 15.6405 1.1163 15.1159 1.59459 14.5011C2.55364 13.2683 3.98456 11.6381 5.69287 9.84679C5.80572 9.72846 5.99312 9.72402 6.11145 9.83686C6.22978 9.94971 6.23423 10.1371 6.12138 10.2554C4.42067 12.0388 3.00439 13.6532 2.06195 14.8647C1.58949 15.472 1.24291 15.9694 1.03874 16.3319C0.980503 16.4353 0.936657 16.5229 0.905219 16.5953C0.870615 16.6103 0.838997 16.6227 0.810354 16.6325C0.746724 16.6544 0.714443 16.6578 0.705791 16.6579C0.705203 16.6579 0.704921 16.6579 0.704921 16.6579C0.70492 16.6579 0.75053 16.6592 0.795885 16.7046C0.837451 16.7462 0.842231 16.7889 0.842588 16.7941C0.842614 16.7945 0.842615 16.7944 0.842632 16.794C0.842734 16.7914 0.843421 16.7737 0.85365 16.7362C0.864039 16.6981 0.880923 16.6512 0.905219 16.5953C1.02253 16.5444 1.17416 16.4632 1.36051 16.3481C1.83895 16.0526 2.49179 15.5681 3.27593 14.9266C4.84143 13.6458 6.90113 11.7632 9.08221 9.58212C11.2633 7.40104 13.1459 5.34135 14.4267 3.77585C15.0682 2.99171 15.5526 2.33887 15.8481 1.86043C15.9636 1.67355 16.0449 1.52159 16.0958 1.40414C16.1514 1.38004 16.1981 1.3633 16.236 1.35302C16.2732 1.34292 16.2907 1.34224 16.2934 1.34213C16.2938 1.34212 16.2938 1.34212 16.2934 1.34209C16.288 1.3417 16.2458 1.33677 16.2047 1.2958C16.2045 1.2956 16.2043 1.29539 16.2041 1.29518C16.1593 1.25003 16.158 1.20484 16.1579 1.20484C16.1579 1.20484 16.158 1.20512 16.158 1.20571C16.1579 1.21436 16.1545 1.24664 16.1326 1.31027C16.1229 1.33864 16.1106 1.36992 16.0958 1.40414C16.0234 1.43552 15.9357 1.47938 15.832 1.53774C15.4696 1.74177 14.9723 2.08839 14.3651 2.56099Z" fill="#565656"/>
<path fill-rule="evenodd" clip-rule="evenodd" d="M0.904128 1.40433C0.935494 1.47667 0.979317 1.56425 1.03761 1.66774C1.24163 2.02996 1.58825 2.5271 2.06086 3.13416C3.00358 4.34509 4.42044 5.95893 6.12121 7.74234C6.23406 7.86067 6.22961 8.04807 6.11129 8.16092C5.99296 8.27377 5.80555 8.26932 5.6927 8.15099C3.98443 6.35972 2.55296 4.73017 1.59363 3.49791C1.11521 2.88338 0.747364 2.35898 0.521693 1.95834C0.410031 1.7601 0.324223 1.57668 0.281451 1.41912C0.260083 1.3404 0.245029 1.25253 0.251372 1.16422C0.257896 1.07339 0.289023 0.964345 0.377304 0.876402C0.480742 0.773175 0.611398 0.749229 0.710419 0.750035C0.808939 0.750836 0.909408 0.775447 1.00265 0.807497C1.19064 0.872117 1.41776 0.991462 1.67147 1.14816C2.18309 1.46415 2.85956 1.96792 3.65068 2.61514C5.23568 3.91186 7.31025 5.80873 9.50071 7.99919C11.6912 10.1896 13.588 12.2642 14.8848 13.8492C15.532 14.6403 16.0358 15.3168 16.3517 15.8284C16.5084 16.0821 16.6278 16.3093 16.6924 16.4973C16.7245 16.5905 16.7491 16.691 16.7499 16.7895C16.7507 16.8886 16.7267 17.0194 16.6232 17.1229L16.6232 17.1229C16.5349 17.2112 16.4256 17.2419 16.3349 17.2482C16.2468 17.2543 16.1591 17.2392 16.0804 17.2177C15.923 17.1748 15.7396 17.089 15.5412 16.9773C15.1404 16.7515 14.6158 16.3838 14.001 15.9055C12.7681 14.9465 11.138 13.5155 9.34668 11.8072C9.22835 11.6944 9.22391 11.507 9.33675 11.3886C9.4496 11.2703 9.63701 11.2659 9.75533 11.3787C11.5387 13.0794 13.1531 14.4957 14.3646 15.4381C14.9719 15.9106 15.4693 16.2572 15.8318 16.4614C15.9352 16.5196 16.0228 16.5634 16.0952 16.5949C16.0443 16.4776 15.9631 16.3259 15.848 16.1396C15.5525 15.6611 15.068 15.0083 14.4265 14.2242C13.1457 12.6587 11.2631 10.599 9.08201 8.41788C6.90093 6.23681 4.84124 4.3542 3.27574 3.07344C2.4916 2.43192 1.83876 1.94745 1.36032 1.65195C1.17349 1.53656 1.02157 1.45523 0.904128 1.40433Z" fill="#565656"/>
</svg>
