<svg width="25" height="25" viewBox="0 0 25 25" fill="none" xmlns="http://www.w3.org/2000/svg">
<circle cx="12.5" cy="12.5" r="12.5" fill="black"/>
<path d="M18.3056 13.3367L16.3181 13.2844L17.9917 13.7028L18.4102 13.9643L18.3056 13.3367Z" fill="#DCD7C9"/>
<path d="M17.9916 13.7028L16.3179 13.2844L15.4288 13.7028L15.7426 13.912L17.5732 14.2258L16.6317 15.4811L18.5669 14.3828L18.41 13.9643L17.9916 13.7028Z" fill="#BFB892"/>
<path d="M17.5732 14.2259L16.2134 13.9644L15.8996 14.7489L16.6318 15.4811L17.5732 14.2259Z" fill="#807531"/>
<path d="M18.6191 15.8472L18.5668 14.3828L16.0564 15.8472L17.1024 16.5272V17.6778L18.6191 15.8472Z" fill="#EEEEEE"/>
<path d="M16.0565 15.8472L18.5146 14.3828L16.6318 15.4288L15.8473 14.6966L15.3766 15.4811L16.0565 15.8472Z" fill="#0A0D00"/>
<path d="M17.1025 16.5271V17.6778L15.272 15.5857L15.3243 15.3242L17.1025 16.5271Z" fill="url(#paint0_linear_15027_5464)"/>
<path d="M16.0042 19.1422L17.1025 17.6777L15.272 15.5857L15.0105 15.8995L16.0042 19.1422Z" fill="url(#paint1_linear_15027_5464)"/>
<path d="M14.9581 15.7427L16.0042 19.1423L14.2259 16.9456L14.9581 15.7427Z" fill="url(#paint2_linear_15027_5464)"/>
<path d="M20.8682 7.53149L18.6715 7.6884L16.2134 13.0754L16.318 13.2846L18.0439 13.3369L20.5021 10.6696L20.8682 7.53149Z" fill="#E0DCD4"/>
<path d="M17.7301 12.3431L16.2134 12.9707L16.5795 12.3431L19.4561 9.72803L17.7301 12.3431Z" fill="url(#paint3_linear_15027_5464)"/>
<path d="M16.2658 12.9706L19.8223 11.4016L18.6716 12.6568L16.3704 13.2845L16.2135 13.1799L16.2658 12.9706Z" fill="url(#paint4_linear_15027_5464)"/>
<path d="M20.4499 11.297L20.5022 10.6694L18.044 13.3368L20.4499 11.297Z" fill="#EDEDED"/>
<path d="M20.4498 7.63599C20.3502 7.78209 20.2218 7.98992 20.1148 8.20051C19.8797 8.60081 19.6405 9.01805 19.613 9.10042C19.5607 9.25733 19.09 9.25733 19.0377 9.36193C18.9854 9.46653 19.3515 9.30963 19.613 9.25733C19.8222 9.21548 20.3278 9.37936 20.5544 9.46653C20.4673 9.37936 20.2302 9.16318 19.9791 8.99582C19.8237 8.89221 19.9409 8.54273 20.1148 8.20051C20.2379 7.99083 20.3599 7.78581 20.4498 7.63599Z" fill="#DAD5C2"/>
<path d="M6.74694 13.3367L8.73438 13.2844L7.06074 13.7028L6.64233 13.9643L6.74694 13.3367Z" fill="#DCD7C9"/>
<path d="M7.06067 13.7028L8.73431 13.2844L9.62343 13.7028L9.30962 13.912L7.47908 14.2258L8.4205 15.4811L6.48535 14.3828L6.64226 13.9643L7.06067 13.7028Z" fill="#BFB892"/>
<path d="M7.479 14.2259L8.83884 13.9644L9.15264 14.7489L8.42043 15.4811L7.479 14.2259Z" fill="#807531"/>
<path d="M6.43311 15.8472L6.48541 14.3828L8.99587 15.8472L7.94984 16.5272V17.6778L6.43311 15.8472Z" fill="#EEEEEE"/>
<path d="M8.99576 15.8472L6.5376 14.3828L8.42044 15.4288L9.20496 14.6966L9.67567 15.4811L8.99576 15.8472Z" fill="#0A0D00"/>
<path d="M7.94971 16.5271V17.6778L9.78025 15.5857L9.72795 15.3242L7.94971 16.5271Z" fill="url(#paint5_linear_15027_5464)"/>
<path d="M9.04803 19.1422L7.94971 17.6777L9.78025 15.5857L10.0418 15.8995L9.04803 19.1422Z" fill="url(#paint6_linear_15027_5464)"/>
<path d="M10.0941 15.7427L9.0481 19.1423L10.8263 16.9456L10.0941 15.7427Z" fill="url(#paint7_linear_15027_5464)"/>
<path d="M4.18408 7.53149L6.38073 7.6884L8.83889 13.0754L8.73429 13.2846L7.00835 13.3369L4.55019 10.6696L4.18408 7.53149Z" fill="#E0DCD4"/>
<path d="M7.32213 12.3431L8.83887 12.9707L8.47276 12.3431L5.59619 9.72803L7.32213 12.3431Z" fill="url(#paint8_linear_15027_5464)"/>
<path d="M8.78671 12.9706L5.23022 11.4016L6.38085 12.6568L8.68211 13.2845L8.83901 13.1799L8.78671 12.9706Z" fill="url(#paint9_linear_15027_5464)"/>
<path d="M4.60259 11.297L4.55029 10.6694L7.00845 13.3368L4.60259 11.297Z" fill="#EDEDED"/>
<path d="M6.38086 7.63599L8.78672 13.1799L9.15283 12.5L7.68839 9.15272L6.38086 7.63599Z" fill="url(#paint10_linear_15027_5464)"/>
<path d="M9.93719 11.2972L7.68823 9.15283L9.78028 11.6633L9.93719 11.2972Z" fill="url(#paint11_linear_15027_5464)"/>
<path d="M10.5127 10.4079L6.38086 7.68823L7.74069 9.20497L9.93734 11.297L10.5127 10.4079Z" fill="#F6F6F6"/>
<path d="M9.78028 11.6633L9.41417 12.1863L8.78656 11.7156L7.68823 9.15283L9.78028 11.6633Z" fill="url(#paint12_linear_15027_5464)"/>
<path d="M9.15273 12.5524L9.41424 12.1863L8.78662 11.7156L9.15273 12.5524Z" fill="#2B2608"/>
<path d="M18.6716 7.63599L16.2658 13.1799L15.8997 12.5L17.3641 9.15272L18.6716 7.63599Z" fill="url(#paint13_linear_15027_5464)"/>
<path d="M15.1151 11.2972L17.364 9.15283L15.272 11.6633L15.1151 11.2972Z" fill="url(#paint14_linear_15027_5464)"/>
<path d="M14.5398 10.4079L18.6716 7.68823L17.3118 9.20497L15.1151 11.297L14.5398 10.4079Z" fill="#F6F6F6"/>
<path d="M15.272 11.6633L15.6381 12.1863L16.2657 11.7156L17.364 9.15283L15.272 11.6633Z" fill="url(#paint15_linear_15027_5464)"/>
<path d="M15.8995 12.5524L15.638 12.1863L16.2656 11.7156L15.8995 12.5524Z" fill="#2B2608"/>
<path d="M12.6045 16.5271L8.62964 14.069L12.6045 11.4016V16.5271Z" fill="#756A33"/>
<path d="M12.5522 16.5271L16.5271 14.069L12.5522 11.4016V16.5271Z" fill="#3C3319"/>
<path d="M12.5522 15.5857V6.74683L8.62964 13.2845L12.5522 15.5857Z" fill="#DED9C8"/>
<path d="M12.5523 15.5857V6.74683L16.4749 13.2845L12.5523 15.5857Z" fill="#B7AF90"/>
<path d="M8.62964 14.0691L12.6045 16.4749V19.613L8.62964 14.0691Z" fill="#DED9C8"/>
<path d="M16.5271 14.0691L12.5522 16.4749V19.613L16.5271 14.0691Z" fill="#B7AF90"/>
<path d="M4.60241 7.63599C4.70202 7.78209 4.83048 7.98992 4.93747 8.20051C5.17258 8.60081 5.41177 9.01805 5.43923 9.10042C5.49153 9.25733 5.96224 9.25733 6.01454 9.36193C6.06684 9.46653 5.70073 9.30963 5.43923 9.25733C5.23002 9.21548 4.72444 9.37936 4.4978 9.46653C4.58497 9.37936 4.82207 9.16318 5.07312 8.99582C5.22853 8.89221 5.11135 8.54273 4.93747 8.20051C4.81432 7.99083 4.6923 7.78581 4.60241 7.63599Z" fill="#DAD5C2"/>
<defs>
<linearGradient id="paint0_linear_15027_5464" x1="15.3243" y1="15.5334" x2="17.1025" y2="16.7887" gradientUnits="userSpaceOnUse">
<stop stop-color="#A89E69"/>
<stop offset="1" stop-color="#D4CEB6"/>
</linearGradient>
<linearGradient id="paint1_linear_15027_5464" x1="15.0105" y1="15.5857" x2="16.0565" y2="19.1422" gradientUnits="userSpaceOnUse">
<stop stop-color="#C7C1A4"/>
<stop offset="1" stop-color="#E8E4DA"/>
</linearGradient>
<linearGradient id="paint2_linear_15027_5464" x1="15.115" y1="15.7427" x2="15.115" y2="19.1423" gradientUnits="userSpaceOnUse">
<stop stop-color="#6F6427"/>
<stop offset="1" stop-color="#938844"/>
</linearGradient>
<linearGradient id="paint3_linear_15027_5464" x1="17.5209" y1="10.5125" x2="17.8347" y2="12.2385" gradientUnits="userSpaceOnUse">
<stop stop-color="#C0B99A" stop-opacity="0"/>
<stop offset="1" stop-color="#C0B99A"/>
</linearGradient>
<linearGradient id="paint4_linear_15027_5464" x1="20.0838" y1="11.7154" x2="15.7951" y2="13.2845" gradientUnits="userSpaceOnUse">
<stop stop-color="#B4AA7C" stop-opacity="0.4"/>
<stop offset="1" stop-color="#4E4A36"/>
</linearGradient>
<linearGradient id="paint5_linear_15027_5464" x1="9.72795" y1="15.5334" x2="7.94971" y2="16.7887" gradientUnits="userSpaceOnUse">
<stop stop-color="#A89E69"/>
<stop offset="1" stop-color="#D4CEB6"/>
</linearGradient>
<linearGradient id="paint6_linear_15027_5464" x1="10.0418" y1="15.5857" x2="8.99573" y2="19.1422" gradientUnits="userSpaceOnUse">
<stop stop-color="#C7C1A4"/>
<stop offset="1" stop-color="#E8E4DA"/>
</linearGradient>
<linearGradient id="paint7_linear_15027_5464" x1="9.93722" y1="15.7427" x2="9.93722" y2="19.1423" gradientUnits="userSpaceOnUse">
<stop stop-color="#6F6427"/>
<stop offset="1" stop-color="#938844"/>
</linearGradient>
<linearGradient id="paint8_linear_15027_5464" x1="7.53134" y1="10.5125" x2="7.21753" y2="12.2385" gradientUnits="userSpaceOnUse">
<stop stop-color="#C0B99A" stop-opacity="0"/>
<stop offset="1" stop-color="#C0B99A"/>
</linearGradient>
<linearGradient id="paint9_linear_15027_5464" x1="4.96872" y1="11.7154" x2="9.25742" y2="13.2845" gradientUnits="userSpaceOnUse">
<stop stop-color="#B4AA7C" stop-opacity="0.4"/>
<stop offset="1" stop-color="#4E4A36"/>
</linearGradient>
<linearGradient id="paint10_linear_15027_5464" x1="6.69467" y1="8.2636" x2="9.25743" y2="13.9121" gradientUnits="userSpaceOnUse">
<stop stop-color="#EFECE1"/>
<stop offset="1" stop-color="#AEA36D"/>
</linearGradient>
<linearGradient id="paint11_linear_15027_5464" x1="7.79283" y1="9.20513" x2="9.93719" y2="11.7156" gradientUnits="userSpaceOnUse">
<stop stop-color="#DAD7C7"/>
<stop offset="1" stop-color="#D5CFB2"/>
</linearGradient>
<linearGradient id="paint12_linear_15027_5464" x1="7.84514" y1="9.57124" x2="9.51878" y2="11.9248" gradientUnits="userSpaceOnUse">
<stop stop-color="#ADA066"/>
<stop offset="1" stop-color="#8B7F3D"/>
</linearGradient>
<linearGradient id="paint13_linear_15027_5464" x1="18.3578" y1="8.2636" x2="15.7951" y2="13.9121" gradientUnits="userSpaceOnUse">
<stop stop-color="#EFECE1"/>
<stop offset="1" stop-color="#AEA36D"/>
</linearGradient>
<linearGradient id="paint14_linear_15027_5464" x1="17.2594" y1="9.20513" x2="15.1151" y2="11.7156" gradientUnits="userSpaceOnUse">
<stop stop-color="#DAD7C7"/>
<stop offset="1" stop-color="#D5CFB2"/>
</linearGradient>
<linearGradient id="paint15_linear_15027_5464" x1="17.2071" y1="9.57124" x2="15.5335" y2="11.9248" gradientUnits="userSpaceOnUse">
<stop stop-color="#ADA066"/>
<stop offset="1" stop-color="#8B7F3D"/>
</linearGradient>
</defs>
</svg>
