<svg width="26" height="25" viewBox="0 0 26 25" fill="none" xmlns="http://www.w3.org/2000/svg">
<path d="M24.9521 12.5239C24.9521 19.4142 19.3664 24.9999 12.476 24.9999C5.58571 24.9999 0 19.4142 0 12.5239C0 5.63357 5.58571 0.0478516 12.476 0.0478516C19.3664 0.0478516 24.9521 5.63357 24.9521 12.5239Z" fill="#A1FE9F"/>
<path fill-rule="evenodd" clip-rule="evenodd" d="M12.476 24.675C19.1869 24.675 24.6272 19.2348 24.6272 12.5239C24.6272 5.813 19.1869 0.372748 12.476 0.372748C5.76515 0.372748 0.324897 5.813 0.324897 12.5239C0.324897 19.2348 5.76515 24.675 12.476 24.675ZM12.476 24.9999C19.3664 24.9999 24.9521 19.4142 24.9521 12.5239C24.9521 5.63357 19.3664 0.0478516 12.476 0.0478516C5.58571 0.0478516 0 5.63357 0 12.5239C0 19.4142 5.58571 24.9999 12.476 24.9999Z" fill="#00171F"/>
<path fill-rule="evenodd" clip-rule="evenodd" d="M10.6082 2.30881C10.4859 2.33222 10.3643 2.35783 10.2437 2.38558C10.1563 2.40569 10.0691 2.35111 10.049 2.26368C10.0288 2.17624 10.0834 2.08906 10.1709 2.06895C10.2954 2.0403 10.4209 2.01387 10.5472 1.9897C10.6709 1.96602 10.7946 1.94459 10.9181 1.92538C11.0068 1.9116 11.0898 1.97229 11.1036 2.06095C11.1174 2.1496 11.0567 2.23264 10.9681 2.24642C10.8482 2.26505 10.7283 2.28584 10.6082 2.30881ZM12.2554 1.96398C12.2542 1.87427 12.3259 1.80058 12.4157 1.7994C12.6676 1.79607 12.9183 1.80176 13.1673 1.81621C13.2569 1.82141 13.3252 1.89823 13.32 1.9878C13.3148 2.07737 13.238 2.14576 13.1485 2.14056C12.9071 2.12655 12.6642 2.12104 12.4199 2.12427C12.3302 2.12545 12.2565 2.05369 12.2554 1.96398ZM8.91486 2.61469C8.94765 2.6982 8.90653 2.79248 8.82302 2.82527C8.59123 2.91628 8.36374 3.01551 8.14085 3.12257C8.05998 3.16142 7.96293 3.12735 7.92408 3.04647C7.88524 2.9656 7.91931 2.86855 8.00018 2.82971C8.23021 2.71922 8.46502 2.61679 8.70428 2.52285C8.78779 2.49006 8.88207 2.53118 8.91486 2.61469ZM14.4663 2.13686C14.4841 2.04894 14.5699 1.99216 14.6578 2.01004C14.9042 2.06016 15.1481 2.11892 15.389 2.18605C15.4754 2.21014 15.5259 2.29972 15.5018 2.38615C15.4777 2.47257 15.3882 2.52311 15.3017 2.49902C15.0683 2.43395 14.8319 2.37699 14.5931 2.32842C14.5052 2.31054 14.4484 2.22478 14.4663 2.13686ZM6.89426 3.63727C6.94443 3.71165 6.9248 3.81262 6.85042 3.86279C6.64434 4.00179 6.44363 4.14801 6.24863 4.30102C6.17805 4.3564 6.07593 4.34408 6.02055 4.27349C5.96517 4.20291 5.97749 4.10079 6.04807 4.04541C6.24917 3.88763 6.45617 3.73682 6.66874 3.59344C6.74312 3.54327 6.84409 3.56289 6.89426 3.63727ZM16.5904 2.77459C16.6265 2.69244 16.7223 2.65506 16.8045 2.69111C17.0343 2.79195 17.2602 2.90079 17.4819 3.01734C17.5613 3.05909 17.5919 3.15731 17.5501 3.23672C17.5084 3.31614 17.4101 3.34667 17.3307 3.30491C17.1158 3.19191 16.8967 3.08639 16.6739 2.98862C16.5918 2.95257 16.5544 2.85675 16.5904 2.77459ZM5.14106 5.0711C5.20589 5.13312 5.20817 5.23595 5.14615 5.30078C4.97445 5.48026 4.80918 5.66573 4.65066 5.85675C4.59337 5.9258 4.49096 5.93532 4.42191 5.87803C4.35287 5.82074 4.34334 5.71832 4.40064 5.64928C4.56402 5.45238 4.73438 5.2612 4.91138 5.07619C4.9734 5.01136 5.07623 5.00908 5.14106 5.0711ZM18.5328 3.84525C18.5853 3.77248 18.6868 3.75604 18.7596 3.80852C18.9629 3.9551 19.161 4.10887 19.3536 4.26952C19.4225 4.32699 19.4318 4.42943 19.3743 4.49833C19.3168 4.56722 19.2144 4.57649 19.1455 4.51902C18.9587 4.36325 18.7666 4.21416 18.5695 4.07203C18.4968 4.01955 18.4803 3.91802 18.5328 3.84525ZM3.72996 6.84285C3.80637 6.88987 3.83019 6.98993 3.78317 7.06634C3.65312 7.27769 3.53047 7.49371 3.41556 7.71397C3.37407 7.79352 3.27594 7.82436 3.1964 7.78286C3.11686 7.74136 3.08601 7.64324 3.12751 7.5637C3.24597 7.33662 3.37241 7.11393 3.50647 6.89606C3.55349 6.81965 3.65355 6.79583 3.72996 6.84285ZM20.2075 5.29942C20.2741 5.2393 20.3768 5.24455 20.4369 5.31114C20.6046 5.49686 20.766 5.68883 20.9207 5.88675C20.976 5.95744 20.9635 6.05953 20.8928 6.11478C20.8221 6.17004 20.72 6.15752 20.6647 6.08684C20.5148 5.89498 20.3583 5.7089 20.1958 5.52886C20.1357 5.46227 20.1409 5.35954 20.2075 5.29942ZM2.72354 8.87191C2.80819 8.90166 2.85269 8.99439 2.82294 9.07903C2.74079 9.31277 2.66692 9.54982 2.60163 9.78977C2.57807 9.87634 2.4888 9.92743 2.40223 9.90387C2.31566 9.88032 2.26457 9.79104 2.28813 9.70447C2.35549 9.45692 2.4317 9.21239 2.51642 8.97131C2.54617 8.88667 2.6389 8.84216 2.72354 8.87191ZM21.538 7.07376C21.6158 7.02911 21.7151 7.05599 21.7598 7.1338C21.8841 7.35039 22.0011 7.57219 22.1106 7.79895C22.1495 7.87975 22.1157 7.97687 22.0349 8.01586C21.954 8.05485 21.8569 8.02096 21.8179 7.94016C21.7119 7.72039 21.5984 7.50542 21.478 7.29552C21.4333 7.2177 21.4602 7.11842 21.538 7.07376ZM2.17484 11.0692C2.26392 11.0798 2.32748 11.1607 2.3168 11.2498C2.2874 11.4951 2.26688 11.7424 2.25556 11.9913C2.25148 12.0809 2.17552 12.1503 2.0859 12.1462C1.99627 12.1421 1.92692 12.0662 1.931 11.9765C1.94269 11.7196 1.96386 11.4643 1.99421 11.2111C2.00489 11.122 2.08576 11.0585 2.17484 11.0692ZM22.4618 9.08991C22.5473 9.06276 22.6386 9.11008 22.6658 9.19559C22.7036 9.31482 22.7395 9.43508 22.7733 9.55636C22.7974 9.64278 22.7469 9.73238 22.6605 9.75649C22.5741 9.7806 22.4845 9.73009 22.4604 9.64367C22.4276 9.52608 22.3928 9.40948 22.3561 9.2939C22.329 9.20838 22.3763 9.11705 22.4618 9.08991ZM2.1198 13.3329C2.20905 13.3237 2.28884 13.3886 2.29802 13.4779C2.31068 13.601 2.32565 13.7243 2.34296 13.8478C2.35542 13.9367 2.29349 14.0188 2.20464 14.0312C2.11579 14.0437 2.03367 13.9818 2.02121 13.8929C2.00334 13.7655 1.98789 13.6382 1.97482 13.5111C1.96565 13.4219 2.03056 13.3421 2.1198 13.3329Z" fill="#00171F"/>
<g filter="url(#filter0_b_15027_7981)">
<path d="M2.32593 14.4797C3.50233 20.1367 9.04077 23.7681 14.6977 22.5917C20.3546 21.4153 23.9861 15.8769 22.8097 10.22" fill="black"/>
</g>
<g filter="url(#filter1_b_15027_7981)">
<path fill-rule="evenodd" clip-rule="evenodd" d="M14.7306 22.7509C8.98587 23.9456 3.36142 20.2577 2.16675 14.5129L2.48484 14.4468C3.64298 20.0159 9.0954 23.591 14.6645 22.4328C20.2336 21.2747 23.8087 15.8223 22.6505 10.2532L22.9686 10.187C24.1633 15.9318 20.4754 21.5562 14.7306 22.7509Z" fill="#00171F"/>
</g>
<path d="M13.0864 14.7752C18.7429 13.5989 23.0988 11.5418 22.8157 10.1805C22.5326 8.81914 17.7177 8.66916 12.0612 9.84546C6.40479 11.0218 2.04883 13.0789 2.33193 14.4402C2.61502 15.8015 7.42997 15.9515 13.0864 14.7752Z" fill="black"/>
<path fill-rule="evenodd" clip-rule="evenodd" d="M3.04465 13.4353C2.59315 13.8331 2.43972 14.1607 2.49096 14.4071C2.5422 14.6535 2.81352 14.8928 3.3862 15.0777C3.94497 15.2581 4.73289 15.3669 5.69921 15.397C7.62921 15.4571 10.2338 15.2025 13.0533 14.6162C15.8728 14.0298 18.363 13.2249 20.109 12.4003C20.9832 11.9875 21.6624 11.5736 22.103 11.1854C22.5545 10.7875 22.7079 10.4599 22.6566 10.2135C22.6054 9.96713 22.3341 9.72786 21.7614 9.54298C21.2026 9.36258 20.4147 9.25381 19.4484 9.22371C17.5184 9.16359 14.9138 9.41816 12.0943 10.0045C9.2748 10.5908 6.78463 11.3958 5.0386 12.2203C4.1644 12.6332 3.48518 13.0471 3.04465 13.4353ZM4.89986 11.9266C6.67515 11.0882 9.19118 10.2764 12.0281 9.68641C14.8651 9.09644 17.4962 8.83785 19.4585 8.89897C20.4384 8.9295 21.2608 9.03995 21.8612 9.23379C22.4477 9.42314 22.8844 9.71311 22.9747 10.1474C23.065 10.5816 22.7802 11.0217 22.3178 11.4291C21.8444 11.8463 21.1342 12.2755 20.2477 12.6941C18.4725 13.5325 15.9564 14.3443 13.1195 14.9343C10.2825 15.5242 7.65144 15.7828 5.68909 15.7217C4.70923 15.6912 3.8868 15.5807 3.28638 15.3869C2.69988 15.1975 2.26317 14.9076 2.17286 14.4733C2.08256 14.039 2.36745 13.599 2.82984 13.1915C3.3032 12.7744 4.01341 12.3452 4.89986 11.9266Z" fill="#00171F"/>
<path d="M7.7407 14.6304L12.5628 19.8233L17.3847 14.6304L12.5627 15.7431L7.7407 14.6304Z" fill="white"/>
<path d="M6.62793 11.6631L12.5627 13.1467L18.4975 11.663L12.5627 4.98633L6.62793 11.6631Z" fill="white"/>
<path d="M12.5627 4.98633V10.1793V4.98633Z" fill="white"/>
<path d="M6.62793 11.6631L12.5627 10.1793L18.4975 11.663" fill="white"/>
<path fill-rule="evenodd" clip-rule="evenodd" d="M12.5626 4.82397C12.609 4.82397 12.6532 4.84382 12.684 4.8785L18.6188 11.5551C18.6565 11.5976 18.6693 11.6567 18.6526 11.711C18.6358 11.7653 18.5919 11.8069 18.5367 11.8207L12.602 13.3043C12.5761 13.3108 12.549 13.3108 12.5232 13.3043L6.58839 11.8208C6.53326 11.807 6.48934 11.7654 6.47257 11.7111C6.4558 11.6568 6.46862 11.5977 6.50637 11.5552L12.4412 4.8785C12.472 4.84382 12.5162 4.82397 12.5626 4.82397ZM12.4001 5.4137L7.0986 11.378L12.4001 10.0526V5.4137ZM12.5626 10.3469L7.29759 11.6632L12.5626 12.9793L17.8275 11.6631L12.5626 10.3469ZM18.0265 11.3779L12.725 10.0526V5.41369L18.0265 11.3779ZM7.59995 14.5491C7.63569 14.4873 7.70755 14.4561 7.77708 14.4722L12.5626 15.5765L17.3481 14.4722C17.4176 14.4561 17.4894 14.4873 17.5252 14.5491C17.5609 14.6108 17.5522 14.6887 17.5036 14.741L12.6817 19.9339C12.651 19.967 12.6078 19.9858 12.5627 19.9858C12.5175 19.9858 12.4744 19.967 12.4436 19.9339L7.62151 14.741C7.57296 14.6887 7.56421 14.6108 7.59995 14.5491ZM8.21974 14.9077L12.5627 19.5846L16.9054 14.9077L12.5991 15.9015C12.5751 15.9071 12.5501 15.9071 12.526 15.9015L8.21974 14.9077Z" fill="#00171F"/>
<path fill-rule="evenodd" clip-rule="evenodd" d="M5.69309 15.4366C7.6231 15.4967 10.2277 15.2422 13.0472 14.6558C15.8667 14.0695 18.3569 13.2645 20.1029 12.44C20.9771 12.0271 21.6563 11.6132 22.0968 11.225C22.5483 10.8272 22.7018 10.4996 22.6505 10.2532L22.9686 10.187C23.0589 10.6213 22.774 11.0613 22.3116 11.4688C21.8383 11.8859 21.1281 12.3151 20.2416 12.7338C18.4663 13.5721 15.9503 14.3839 13.1134 14.9739C10.2764 15.5639 7.64532 15.8225 5.68297 15.7613C4.70311 15.7308 3.88068 15.6204 3.28027 15.4265C2.69376 15.2372 2.25706 14.9472 2.16675 14.5129L2.48484 14.4468C2.53608 14.6932 2.8074 14.9325 3.38009 15.1173C3.93886 15.2977 4.72677 15.4065 5.69309 15.4366Z" fill="white"/>
<path d="M19.0389 19.2819C19.5772 19.2819 20.0136 18.8455 20.0136 18.3072C20.0136 17.7689 19.5772 17.3325 19.0389 17.3325C18.5006 17.3325 18.0642 17.7689 18.0642 18.3072C18.0642 18.8455 18.5006 19.2819 19.0389 19.2819Z" fill="white"/>
<path fill-rule="evenodd" clip-rule="evenodd" d="M19.039 17.4948C18.5904 17.4948 18.2268 17.8585 18.2268 18.3071C18.2268 18.7557 18.5904 19.1193 19.039 19.1193C19.4876 19.1193 19.8512 18.7557 19.8512 18.3071C19.8512 17.8585 19.4876 17.4948 19.039 17.4948ZM17.9019 18.3071C17.9019 17.679 18.411 17.1699 19.039 17.1699C19.667 17.1699 20.1761 17.679 20.1761 18.3071C20.1761 18.9351 19.667 19.4442 19.039 19.4442C18.411 19.4442 17.9019 18.9351 17.9019 18.3071Z" fill="#00171F"/>
<path d="M3.70394 19.0219C4.24225 19.0219 4.67863 18.5855 4.67863 18.0472C4.67863 17.5089 4.24225 17.0725 3.70394 17.0725C3.16563 17.0725 2.72925 17.5089 2.72925 18.0472C2.72925 18.5855 3.16563 19.0219 3.70394 19.0219Z" fill="#D1F2DD"/>
<path fill-rule="evenodd" clip-rule="evenodd" d="M3.70379 17.2351C3.2552 17.2351 2.89155 17.5987 2.89155 18.0473C2.89155 18.4959 3.2552 18.8595 3.70379 18.8595C4.15238 18.8595 4.51603 18.4959 4.51603 18.0473C4.51603 17.5987 4.15238 17.2351 3.70379 17.2351ZM2.56665 18.0473C2.56665 17.4193 3.07576 16.9102 3.70379 16.9102C4.33181 16.9102 4.84093 17.4193 4.84093 18.0473C4.84093 18.6753 4.33181 19.1844 3.70379 19.1844C3.07576 19.1844 2.56665 18.6753 2.56665 18.0473Z" fill="#00171F"/>
<path d="M6.5631 8.62516C7.10155 8.62516 7.53806 8.18878 7.53806 7.65047C7.53806 7.11217 7.10155 6.67578 6.5631 6.67578C6.02464 6.67578 5.58813 7.11217 5.58813 7.65047C5.58813 8.18878 6.02464 8.62516 6.5631 8.62516Z" fill="black"/>
<path fill-rule="evenodd" clip-rule="evenodd" d="M6.56319 6.83832C6.11441 6.83832 5.75068 7.20202 5.75068 7.65057C5.75068 8.09911 6.11441 8.46281 6.56319 8.46281C7.01197 8.46281 7.3757 8.09911 7.3757 7.65057C7.3757 7.20202 7.01197 6.83832 6.56319 6.83832ZM5.42578 7.65057C5.42578 7.0225 5.93506 6.51343 6.56319 6.51343C7.19132 6.51343 7.7006 7.0225 7.7006 7.65057C7.7006 8.27863 7.19132 8.78771 6.56319 8.78771C5.93506 8.78771 5.42578 8.27863 5.42578 7.65057Z" fill="#00171F"/>
<path d="M19.5587 5.89616C20.097 5.89616 20.5334 5.45978 20.5334 4.92147C20.5334 4.38316 20.097 3.94678 19.5587 3.94678C19.0204 3.94678 18.584 4.38316 18.584 4.92147C18.584 5.45978 19.0204 5.89616 19.5587 5.89616Z" fill="#619571"/>
<path fill-rule="evenodd" clip-rule="evenodd" d="M19.5588 4.10908C19.1102 4.10908 18.7465 4.47273 18.7465 4.92132C18.7465 5.36991 19.1102 5.73356 19.5588 5.73356C20.0074 5.73356 20.371 5.36991 20.371 4.92132C20.371 4.47273 20.0074 4.10908 19.5588 4.10908ZM18.4216 4.92132C18.4216 4.29329 18.9307 3.78418 19.5588 3.78418C20.1868 3.78418 20.6959 4.29329 20.6959 4.92132C20.6959 5.54934 20.1868 6.05846 19.5588 6.05846C18.9307 6.05846 18.4216 5.54934 18.4216 4.92132Z" fill="#00171F"/>
<defs>
<filter id="filter0_b_15027_7981" x="-17.6741" y="-9.78003" width="60.7051" height="52.593" filterUnits="userSpaceOnUse" color-interpolation-filters="sRGB">
<feFlood flood-opacity="0" result="BackgroundImageFix"/>
<feGaussianBlur in="BackgroundImageFix" stdDeviation="10"/>
<feComposite in2="SourceAlpha" operator="in" result="effect1_backgroundBlur_15027_7981"/>
<feBlend mode="normal" in="SourceGraphic" in2="effect1_backgroundBlur_15027_7981" result="shape"/>
</filter>
<filter id="filter1_b_15027_7981" x="-17.8333" y="-9.81299" width="61.0266" height="52.7886" filterUnits="userSpaceOnUse" color-interpolation-filters="sRGB">
<feFlood flood-opacity="0" result="BackgroundImageFix"/>
<feGaussianBlur in="BackgroundImageFix" stdDeviation="10"/>
<feComposite in2="SourceAlpha" operator="in" result="effect1_backgroundBlur_15027_7981"/>
<feBlend mode="normal" in="SourceGraphic" in2="effect1_backgroundBlur_15027_7981" result="shape"/>
</filter>
</defs>
</svg>
