<svg width="25" height="25" viewBox="0 0 25 25" fill="none" xmlns="http://www.w3.org/2000/svg">
<g clip-path="url(#clip0_6528_61208)">
<path d="M12.5001 24.6622C19.217 24.6622 24.6622 19.217 24.6622 12.5001C24.6622 5.78308 19.217 0.337891 12.5001 0.337891C5.78308 0.337891 0.337891 5.78308 0.337891 12.5001C0.337891 19.217 5.78308 24.6622 12.5001 24.6622Z" fill="white" stroke="#F0F0F4"/>
<path fill-rule="evenodd" clip-rule="evenodd" d="M12.3279 3.75418C12.4249 3.68628 12.5528 3.68179 12.6543 3.7427L17.6543 6.7427C17.7447 6.79692 17.8 6.89457 17.8 6.99995V12.5C17.8 12.6053 17.7447 12.703 17.6543 12.7572L12.6543 15.7572C12.5593 15.8142 12.4406 15.8142 12.3456 15.7572L7.3456 12.7572C7.25524 12.703 7.19995 12.6053 7.19995 12.5V7.49995C7.19995 7.40206 7.24771 7.31032 7.32791 7.25418L12.3279 3.75418ZM11.5421 5.03667L8.05897 7.47483L9.59081 8.35379L11.5421 5.03667ZM9.28658 8.87098L7.79995 8.01797V11.3983L9.28658 8.87098ZM7.90932 12.3957L12.5 15.1501L17.0906 12.3957L12.5 4.59164L7.90932 12.3957ZM13.3559 4.86338L15.1164 7.8563L16.877 6.97603L13.3559 4.86338ZM17.2 7.48536L15.4214 8.37466L17.2 11.3983V7.48536ZM7.35214 13.7389C7.44619 13.6856 7.56162 13.6871 7.6543 13.7427L12.5 16.6501L17.3456 13.7427C17.4383 13.6871 17.5537 13.6856 17.6478 13.7389C17.7418 13.7921 17.8 13.8919 17.8 14V18C17.8 18.0978 17.7522 18.1896 17.672 18.2457L12.672 21.7457C12.5687 21.818 12.4312 21.818 12.3279 21.7457L7.32791 18.2457C7.24771 18.1896 7.19995 18.0978 7.19995 18V14C7.19995 13.8919 7.25809 13.7921 7.35214 13.7389ZM8.48961 14.9436L12.5 20.9591L16.5103 14.9436L12.6543 17.2572C12.5593 17.3142 12.4406 17.3142 12.3456 17.2572L8.48961 14.9436ZM17.2 14.9908L16.0347 16.7386L17.2 17.461V14.9908ZM16.9551 18.0151L15.7017 17.2381L13.6337 20.3401L16.9551 18.0151ZM11.3662 20.3401L8.04479 18.0151L9.29816 17.2381L11.3662 20.3401ZM8.96516 16.7386L7.79995 14.9908V17.461L8.96516 16.7386Z" fill="url(#paint0_linear_6528_61208)"/>
</g>
<defs>
<linearGradient id="paint0_linear_6528_61208" x1="12.5" y1="3.69995" x2="12.5" y2="21.8" gradientUnits="userSpaceOnUse">
<stop stop-color="#B45AFA"/>
<stop offset="0.525" stop-color="#626AE5"/>
<stop offset="1" stop-color="#29BBFA"/>
</linearGradient>
<clipPath id="clip0_6528_61208">
<rect width="25" height="25" fill="white"/>
</clipPath>
</defs>
</svg>
