<svg width="25" height="25" viewBox="0 0 25 25" fill="none" xmlns="http://www.w3.org/2000/svg">
<rect x="0.5" y="0.5" width="24" height="24" rx="12" fill="white"/>
<rect x="0.5" y="0.5" width="24" height="24" rx="12" stroke="#F0F0F4"/>
<path d="M12.4988 5.44678L12.4004 5.78129V15.4871L12.4988 15.5853L16.9971 12.9223L12.4988 5.44678Z" fill="#90C228"/>
<path d="M12.4987 5.44678L8.00024 12.9223L12.4987 15.5853V10.8744V5.44678Z" fill="#C2ED68"/>
<path d="M12.4991 16.4383L12.4436 16.506V19.9634L12.4991 20.1254L17.0002 13.7766L12.4991 16.4383Z" fill="#6B8D1D"/>
<path d="M12.4987 20.1254V16.4383L8.00024 13.7766L12.4987 20.1254Z" fill="#C2ED68"/>
<path d="M12.4988 15.5854L16.9971 12.9224L12.4988 10.8745V15.5854Z" fill="#A3DB2E"/>
<path d="M8.00024 12.9224L12.4987 15.5854V10.8745L8.00024 12.9224Z" fill="#E3F7B9"/>
</svg>
