<svg width="18" height="19" viewBox="0 0 18 19" fill="none" xmlns="http://www.w3.org/2000/svg">
<path d="M3 5.375V13.25C3 14.4927 4.00736 15.5 5.25 15.5H12.75C13.9927 15.5 15 14.4927 15 13.25V9.5C15 8.25732 13.9927 7.25 12.75 7.25H12M3 5.375C3 6.41053 3.83947 7.25 4.875 7.25H12M3 5.375C3 4.33947 3.83947 3.5 4.875 3.5H10.5C11.3284 3.5 12 4.17157 12 5V7.25" stroke="white" stroke-opacity="0.3" stroke-width="1.5" stroke-linecap="square" stroke-linejoin="round"/>
<path d="M11.625 12.0312C11.9874 12.0312 12.2812 11.7374 12.2812 11.375C12.2812 11.0126 11.9874 10.7188 11.625 10.7188C11.2626 10.7188 10.9688 11.0126 10.9688 11.375C10.9688 11.7374 11.2626 12.0312 11.625 12.0312Z" fill="white" fill-opacity="0.3" stroke="white" stroke-opacity="0.3" stroke-width="0.5625"/>
</svg>
